<?xml version="1.0" encoding="utf-8"?>
<!-- Generator: Adobe Illustrator 19.0.0, SVG Export Plug-In . SVG Version: 6.00 Build 0)  -->
<svg version="1.1" id="Capa_1" xmlns="http://www.w3.org/2000/svg" xmlns:xlink="http://www.w3.org/1999/xlink" x="0px" y="0px"
	 viewBox="9 113.2 614.7 614.7" style="enable-background:new 9 113.2 614.7 614.7;" xml:space="preserve">
<g>
	<g>
		<path d="M411.6,265l51.1-51.1c6-6,6.3-16.2-0.6-23.1c-6-6-17-6.5-23.4,0l-50.5,51.1c-6.4,6.5-6.9,16.2,0,23.1
			C395.1,271.9,404.7,271.9,411.6,265z"/>
		<path d="M274.9,218.4c9.3,0,16.8-7.6,16.8-16.9v-71.8c0-9.4-7.5-16.5-16.8-16.5s-16.5,7.2-16.5,16.5v71.8
			C258.3,210.8,265.6,218.4,274.9,218.4z"/>
		<path d="M139,265c7,6.9,16.8,7.1,23.4,0c6.3-6.7,6-17.1,0-23.2l-51.1-51.1c-6-6-16.5-6-23.4,0c-6.9,7.2-6.8,17.1,0,23.8L139,265z"
			/>
		<path d="M26.9,395.1l72.1-0.9c9.3-0.1,16.5-7.2,16.5-16.5c0-9.3-7.2-16.5-16.5-16.5H26.9c-9.3,0.9-16.5,7.8-16.5,17.1
			C10.4,387,17.6,395.3,26.9,395.1z"/>
		<path d="M603.7,506.9c-12.3-22.5-28.9-40.5-49.9-54.1c-5.1-38.2-20.5-70.5-46-97.4c-29.9-31.5-70.3-49-113.3-49h-12.3
			c-11.7-17.4-27.4-31.3-46.3-41.5c-18.9-10.2-39.1-15.3-61-15.3c-35.5,0-65.9,12.6-91.1,37.6c-25,24.9-37.6,55-37.6,90.5
			c0,13.5,6,34,18,61.6c-17.1,14.1-29.5,32.4-36.4,54.7H121c-30.4,0-56.5,11.4-78.2,34.2c-21.6,22.9-32.5,50.5-32.5,82.7
			c0,28.9,8.9,54,26.5,75.8c17.9,22.1,40.3,35.5,67.6,40c6.3,1,11.4,1.2,14.7,1.2h288.3h17.1h61c8.1,0,14.7-0.6,19.5-1.8
			c33.7-4.8,61.8-21.5,84.5-50c21.8-27.4,32.8-59.5,32.8-95.9C622.4,554.1,616,529.5,603.7,506.9z M207.8,310.7
			c18.6-18.5,40.9-27.7,67-27.7c28,0,51.7,10.3,70.9,30.7c-47.2,16-85.1,54.1-102.2,103.4c-6.3-0.9-11.4-1.2-14.7-1.2
			c-12.9,0-25.3,2.4-37.6,7.5c-7.5-13.5-11.1-28.5-11.1-45.7C180.2,351.5,189.4,328.9,207.8,310.7z M563.4,655.7
			c-17.1,21.4-38.5,33.9-64.3,37.8c-2.4,0.9-6.9,1.2-13.5,1.2h-61h-17.1H119.2c-2.4,0-6.9-0.6-9-0.6c-18.9-3-34.6-12.3-47.5-28.3
			c-12.9-15.9-19.2-34.2-19.2-55c0-23.2,7.4-43,22.5-59.2c15.2-16.3,33.7-24.4,55-24.4c12.9,0,25,3,36.4,9.4
			c-0.3-2.1-0.6-5.1-0.6-9.4c0-21.4,6.9-39.7,21-55c14.1-15.3,31-23.1,51.1-23.1c13.8,0,26.5,3.9,38.2,11.7
			c3.9-34.2,17.8-63,42.1-86.3c24.4-23.3,52.6-35.1,85.4-35.1c34.6,0,64.3,13.2,89,39.4c24.6,26.1,37.6,57.7,38.5,95
			c20.1,8.4,36.1,22.3,48.4,41.5s18.6,40.8,18.6,64.9C589,609.4,580.6,634.4,563.4,655.7z"/>
	</g>
</g>
</svg>
